<?xml version="1.0" encoding="UTF-8" standalone="no"?><!DOCTYPE svg PUBLIC "-//W3C//DTD SVG 1.1//EN" "http://www.w3.org/Graphics/SVG/1.1/DTD/svg11.dtd"><svg width="100%" height="100%" viewBox="0 0 7016 4145" version="1.1" xmlns="http://www.w3.org/2000/svg" xmlns:xlink="http://www.w3.org/1999/xlink" xml:space="preserve" xmlns:serif="http://www.serif.com/" style="fill-rule:evenodd;clip-rule:evenodd;stroke-linejoin:round;stroke-miterlimit:2;"><g id="v1"><g id="rustacean-flat-gesture.svg"><g><g id="Layer-1" serif:id="Layer 1"><g><path d="M3487.48,2032.18c-627.513,-0 -1194.67,75.451 -1621.79,198.384l0,-27.768c-427.114,137.415 -699.158,328.325 -699.158,539.401c-0,33.277 7.365,66.05 20.277,98.187l-43.719,78.419c-0,0 -35.117,45.773 27.023,142.366c54.813,85.171 329.447,418.561 474.36,593.142c62.243,89.518 104.495,144.633 108.185,139.305c5.81,-8.45 -38.681,-176.481 -162.297,-368.206c-57.677,-102.973 -127.905,-239.397 -169.247,-340.158c115.436,73.059 269.35,139.332 444.576,196.369l0,-0.871c427.115,122.949 994.273,198.384 1621.79,198.384c718.187,-0 1362.54,-98.817 1795.13,-254.577l0,-937.779c-432.59,-155.77 -1076.94,-254.598 -1795.13,-254.598" style="fill:rgb(165,43,0);fill-rule:nonzero;"/></g><g><path d="M5928.04,2901.91l-73.557,-152.381c0.389,-5.783 0.679,-11.576 0.679,-17.386c0,-172.751 -179.634,-331.944 -481.856,-459.427l0,918.854c141.008,-59.489 255.42,-125.856 337.234,-197.332c-24.083,96.829 -106.433,292.71 -172.094,430.46c-107.912,197.026 -146.999,368.539 -141.983,377.027c3.198,5.355 40.012,-51.435 94.305,-143.467c126.338,-180.023 365.741,-523.708 413.589,-611.25c54.205,-99.238 23.683,-145.098 23.683,-145.098" style="fill:rgb(165,43,0);fill-rule:nonzero;"/></g><g><path d="M6355.16,2901.05l-483.493,-356.164c-4.545,-15.853 -9.09,-31.689 -13.777,-47.41l-161.663,-406.41c-10.393,-21.241 -21.301,-42.153 -32.247,-62.884l112.824,-258.306c11.603,-26.317 9.161,-56.894 -6.237,-80.774c-15.316,-24 -41.348,-38.013 -69.089,-36.923l-272.532,9.905c-14.111,-18.376 -28.441,-36.578 -43.072,-54.462l62.632,-276.858c6.347,-28.102 -1.654,-57.54 -21.241,-77.965c-19.466,-20.348 -47.76,-28.769 -74.668,-22.177l-265.457,65.267c-17.194,-15.196 -34.662,-30.188 -52.343,-44.88l9.555,-284.234c1.029,-28.77 -12.386,-56.11 -35.418,-72.078c-23.02,-16.066 -52.239,-18.486 -77.417,-6.549l-247.65,117.741c-19.932,-11.444 -39.984,-22.779 -60.261,-33.747l-389.901,-168.541c-21.739,-7.217 -43.576,-14.144 -65.687,-20.764l-95.17,-265.599c-9.671,-27.078 -31.99,-46.961 -59.194,-52.552c-27.122,-5.541 -55.021,3.85 -73.83,24.855l-185.839,207.922c-22.473,-2.579 -44.957,-4.933 -67.5,-6.894l-143.511,-241.779c-14.544,-24.488 -40.214,-39.388 -67.884,-39.388c-27.603,0 -53.329,14.9 -67.747,39.388l-143.543,241.779c-22.555,1.961 -45.142,4.315 -67.577,6.894l-185.866,-207.922c-18.82,-21.005 -46.824,-30.396 -73.852,-24.855c-27.193,5.668 -49.529,25.474 -59.172,52.552l-95.241,265.599c-22.051,6.62 -43.9,13.591 -65.693,20.764l-389.912,168.541c-20.261,10.968 -40.318,22.242 -60.311,33.747l-247.627,-117.741c-25.145,-11.987 -54.496,-9.517 -77.401,6.549c-23.004,15.968 -36.447,43.308 -35.407,72.078l9.506,284.234c-17.626,14.692 -35.062,29.684 -52.338,44.88l-265.413,-65.267c-26.968,-6.543 -55.229,1.829 -74.745,22.177c-19.631,20.425 -27.593,49.863 -21.273,77.965l62.506,276.858c-14.505,17.955 -28.858,36.086 -42.925,54.462l-272.537,-9.905c-27.505,-0.811 -53.756,12.923 -69.121,36.923c-15.399,23.88 -17.726,54.457 -6.276,80.774l112.906,258.306c-10.968,20.731 -21.859,41.643 -32.34,62.884l-161.597,406.41c-1.227,4.058 -2.355,8.159 -3.576,12.228l-449.132,477.064c-0,0 -68.777,53.943 31.376,180.714c88.38,111.821 542.068,555.117 781.685,787.363c101.21,117.905 170.534,190.92 177.778,184.601c11.434,-10.032 -48.576,-224.542 -247.918,-476.233c-153.651,-225.817 -353.07,-573.132 -306.312,-613.166c0,0 53.192,-67.522 159.916,-116.126c3.904,3.127 -4.036,-3.094 0,0c0,0 2252.28,1038.96 4341.48,17.578c238.658,-42.805 383.132,85.034 383.132,85.034c49.825,28.89 -79.196,386.018 -185.291,622.415c-144.304,268.441 -165.462,477.908 -153.224,485.169c7.715,4.61 60.223,-75.277 135.11,-202.42c184.782,-257.489 534.107,-748.353 598.037,-867.578c72.495,-135.182 0,-173.069 0,-173.069" style="fill:rgb(247,76,0);fill-rule:nonzero;"/></g><g><path d="M1429.92,2684.46c0,0 -608.342,-236.829 -711.178,-491.718c0,0 713.998,-567.936 -140.296,-1171.2l-23.157,768.899c0,-0 -253.125,-244.189 -241.955,-671.791c0,0 -787.275,378.807 134.027,1049.04c-0,0 31.08,359.751 859.578,794.088l122.981,-277.318Z" style="fill:rgb(247,76,0);fill-rule:nonzero;"/></g><g><path d="M3902.41,2359.62c0,0 225.078,-246.461 450.168,0c-0,0 176.852,328.621 -0,492.912c-0,0 -289.398,230.034 -450.168,0c0,0 -192.924,-180.735 0,-492.912" style="fill-rule:nonzero;"/></g><g><path d="M4163,2451.05c-0,95.953 -56.56,173.748 -126.328,173.748c-69.756,0 -126.321,-77.795 -126.321,-173.748c-0,-95.986 56.565,-173.792 126.321,-173.792c69.768,0 126.328,77.806 126.328,173.792" style="fill:white;fill-rule:nonzero;"/></g><g><path d="M2897.83,2292.32c0,0 386.09,-170.949 491.472,210.617c0,0 110.387,444.736 -317.061,469.837c-0,-0 -545.069,-104.983 -174.411,-680.454" style="fill-rule:nonzero;"/></g><g><path d="M3091.75,2457.34c-0,98.959 -58.334,179.218 -130.292,179.218c-71.936,0 -130.281,-80.259 -130.281,-179.218c0,-98.992 58.345,-179.229 130.281,-179.229c71.958,-0 130.292,80.237 130.292,179.229" style="fill:white;fill-rule:nonzero;"/></g></g></g></g><g><path d="M5558.92,2824.2c0,0 291.199,-13.503 673.702,-402.265l54.199,-120.353c0,0 -593.672,-590.556 329.196,-998.193c-0,-0 -80.796,132.033 -57.091,642.161c-0,-0 278.254,-96.643 359.838,-547.254c0,-0 405.868,535.119 -440.815,1037c0,-0 -397.216,636.778 -957.201,575.783l38.172,-186.874Z" style="fill:rgb(247,76,0);fill-rule:nonzero;"/></g><g><path d="M450.519,2178.6c0,0 -91.993,169.243 -88.432,235.846c3.562,66.617 41.003,139.331 101.601,176.944c60.61,37.625 247.174,137.07 266.782,167.376c19.607,30.305 140.724,-27.585 169.242,-32.934c28.518,-5.349 109.012,-12.13 194.567,48.481c85.567,60.597 144.39,158.636 144.39,158.636c0,0 141.644,152.828 182.647,177.772c24.839,15.126 86.212,51.49 160.53,86.434c48.349,22.736 103.571,47.863 156.875,67.103c164.945,59.533 362.259,103.756 479.38,126.321c146.165,28.163 489.814,75.435 593.097,84.016c188.942,15.679 720.179,16.283 727.316,3.798c7.122,-12.471 71.558,-76.644 71.558,-76.644c-0,0 -421.384,-8.91 -464.162,-14.259c-42.79,-5.348 -493.415,-57.338 -572.188,-69.521c-87.197,-13.483 -372.206,-81.309 -424.235,-90.903c-54.776,-10.093 -715.318,-195.276 -737.081,-223.045c-19.673,-25.101 -304.276,-467.631 -318.535,-497.621c-14.259,-30.003 35.116,-35.351 -70.06,-88.826c-105.162,-53.475 -165.772,-60.611 -199.639,-137.255c-33.867,-76.644 -28.518,-73.082 -71.295,-83.78c-42.791,-10.684 -39.216,-3.561 -39.216,-3.561c-77.262,-41.371 -166.864,-39.558 -263.142,-14.378Z" style="fill:rgb(240,222,214);"/><g><clipPath id="_clip1"><path d="M450.519,2178.6c0,0 -91.993,169.243 -88.432,235.846c3.562,66.617 41.003,139.331 101.601,176.944c60.61,37.625 247.174,137.07 266.782,167.376c19.607,30.305 140.724,-27.585 169.242,-32.934c28.518,-5.349 109.012,-12.13 194.567,48.481c85.567,60.597 144.39,158.636 144.39,158.636c0,0 141.644,152.828 182.647,177.772c24.839,15.126 86.212,51.49 160.53,86.434c48.349,22.736 103.571,47.863 156.875,67.103c164.945,59.533 362.259,103.756 479.38,126.321c146.165,28.163 489.814,75.435 593.097,84.016c188.942,15.679 720.179,16.283 727.316,3.798c7.122,-12.471 71.558,-76.644 71.558,-76.644c-0,0 -421.384,-8.91 -464.162,-14.259c-42.79,-5.348 -493.415,-57.338 -572.188,-69.521c-87.197,-13.483 -372.206,-81.309 -424.235,-90.903c-54.776,-10.093 -715.318,-195.276 -737.081,-223.045c-19.673,-25.101 -304.276,-467.631 -318.535,-497.621c-14.259,-30.003 35.116,-35.351 -70.06,-88.826c-105.162,-53.475 -165.772,-60.611 -199.639,-137.255c-33.867,-76.644 -28.518,-73.082 -71.295,-83.78c-42.791,-10.684 -39.216,-3.561 -39.216,-3.561c-77.262,-41.371 -166.864,-39.558 -263.142,-14.378Z"/></clipPath><g clip-path="url(#_clip1)"><ellipse cx="2057.2" cy="2670.14" rx="103.252" ry="106.148"/></g></g><g><path d="M459.149,2204.1c8.779,-1.761 40.398,-14.048 79.929,-15.809c39.518,-1.761 80.797,-5.27 111.549,7.031c30.739,12.287 69.39,17.557 84.319,27.23c14.929,9.659 0,7.898 23.708,27.23c23.721,19.319 33.381,12.288 44.801,50.058c11.421,37.77 9.66,53.579 9.66,53.579c-0,0 -8.779,-7.898 -24.589,-37.77c-15.81,-29.858 -21.96,-35.128 -43.04,-51.818c-21.08,-16.691 -47.429,-31.62 -47.429,-31.62c-0,0 -0,23.708 7.017,42.159c7.031,18.439 29.872,62.359 40.412,76.421c10.54,14.049 10.54,30.739 10.54,30.739c-0,0 -28.991,-34.261 -43.04,-55.341c-14.049,-21.079 -47.429,-102.77 -47.429,-102.77c-0,0 -14.93,11.42 -15.81,35.142c-0.881,23.708 -0,65.88 5.27,86.96c5.27,21.067 27.23,56.208 27.23,56.208c-0,0 -53.58,-65 -56.222,-79.049c-2.628,-14.062 2.642,-83.451 1.762,-93.991c-0.881,-10.54 -8.779,-16.677 -8.779,-16.677c-0,-0 -15.81,14.049 -24.602,38.637c-8.779,24.602 -27.23,73.792 -19.319,101.89c7.899,28.111 31.62,78.168 31.62,78.168c-0,0 -48.31,-58.836 -52.699,-73.779c-4.39,-14.929 -7.031,-45.668 -1.762,-64.119c5.27,-18.439 21.961,-86.948 21.961,-86.948c-0,0 -28.111,22.828 -36.89,45.669c-8.779,22.84 -21.079,67.628 -24.588,90.469c-3.522,22.841 3.509,86.96 3.509,86.96c-0,0 -30.74,-86.96 -26.35,-110.668c4.389,-23.721 15.81,-107.16 15.81,-107.16c-0,0 -22.841,-0.88 -36.009,21.08c-13.182,21.96 -22.841,29.859 -28.111,53.58c-5.27,23.708 -9.659,43.92 -9.659,43.92c-0,0 -2.642,-48.31 4.389,-69.389c7.031,-21.093 14.049,-54.461 22.841,-56.222Z"/></g></g><g><path d="M6554.7,2177.29c-0,0 91.994,169.242 88.432,235.846c-3.561,66.617 -41.003,139.331 -101.6,176.943c-60.611,37.626 -247.174,137.071 -266.782,167.376c-19.608,30.306 -140.724,-27.585 -169.242,-32.933c-28.518,-5.349 -109.013,-12.13 -194.567,48.48c-85.568,60.598 -144.391,158.637 -144.391,158.637c-0,0 -141.644,152.828 -182.647,177.771c-24.838,15.127 -86.211,51.491 -160.529,86.435c-48.349,22.736 -103.572,47.863 -156.876,67.103c-164.945,59.533 -362.258,103.756 -479.379,126.321c-146.165,28.163 -489.815,75.434 -593.097,84.016c-188.942,15.679 -720.18,16.283 -727.316,3.798c-7.123,-12.472 -71.558,-76.644 -71.558,-76.644c-0,0 421.384,-8.91 464.161,-14.259c42.79,-5.349 493.415,-57.338 572.188,-69.521c87.197,-13.483 372.207,-81.309 424.236,-90.903c54.776,-10.093 715.317,-195.276 737.08,-223.045c19.674,-25.101 304.276,-467.631 318.535,-497.621c14.259,-30.003 -35.115,-35.352 70.06,-88.826c105.162,-53.475 165.773,-60.611 199.64,-137.255c33.866,-76.644 28.518,-73.083 71.295,-83.78c42.79,-10.684 39.215,-3.562 39.215,-3.562c77.262,-41.37 166.864,-39.557 263.142,-14.377Z" style="fill:rgb(240,222,214);"/><g><clipPath id="_clip2"><path d="M6554.7,2177.29c-0,0 91.994,169.242 88.432,235.846c-3.561,66.617 -41.003,139.331 -101.6,176.943c-60.611,37.626 -247.174,137.071 -266.782,167.376c-19.608,30.306 -140.724,-27.585 -169.242,-32.933c-28.518,-5.349 -109.013,-12.13 -194.567,48.48c-85.568,60.598 -144.391,158.637 -144.391,158.637c-0,0 -141.644,152.828 -182.647,177.771c-24.838,15.127 -86.211,51.491 -160.529,86.435c-48.349,22.736 -103.572,47.863 -156.876,67.103c-164.945,59.533 -362.258,103.756 -479.379,126.321c-146.165,28.163 -489.815,75.434 -593.097,84.016c-188.942,15.679 -720.18,16.283 -727.316,3.798c-7.123,-12.472 -71.558,-76.644 -71.558,-76.644c-0,0 421.384,-8.91 464.161,-14.259c42.79,-5.349 493.415,-57.338 572.188,-69.521c87.197,-13.483 372.207,-81.309 424.236,-90.903c54.776,-10.093 715.317,-195.276 737.08,-223.045c19.674,-25.101 304.276,-467.631 318.535,-497.621c14.259,-30.003 -35.115,-35.352 70.06,-88.826c105.162,-53.475 165.773,-60.611 199.64,-137.255c33.866,-76.644 28.518,-73.083 71.295,-83.78c42.79,-10.684 39.215,-3.562 39.215,-3.562c77.262,-41.37 166.864,-39.557 263.142,-14.377Z"/></clipPath><g clip-path="url(#_clip2)"><ellipse cx="4948.02" cy="2668.83" rx="103.252" ry="106.148"/></g></g><g><path d="M6546.07,2202.78c-8.779,-1.761 -40.399,-14.049 -79.93,-15.81c-39.518,-1.761 -80.797,-5.27 -111.549,7.031c-30.739,12.288 -69.389,17.558 -84.319,27.23c-14.929,9.66 0,7.899 -23.708,27.231c-23.721,19.318 -33.38,12.287 -44.801,50.057c-11.42,37.77 -9.659,53.58 -9.659,53.58c-0,0 8.779,-7.898 24.588,-37.77c15.81,-29.858 21.961,-35.128 43.04,-51.819c21.08,-16.69 47.43,-31.619 47.43,-31.619c-0,-0 -0,23.708 -7.018,42.159c-7.031,18.438 -29.872,62.359 -40.412,76.421c-10.539,14.049 -10.539,30.739 -10.539,30.739c-0,-0 28.991,-34.261 43.039,-55.341c14.049,-21.08 47.43,-102.77 47.43,-102.77c-0,-0 14.929,11.42 15.81,35.141c0.88,23.709 -0,65.881 -5.27,86.961c-5.27,21.066 -27.23,56.208 -27.23,56.208c-0,0 53.579,-65 56.221,-79.049c2.628,-14.062 -2.642,-83.451 -1.761,-93.991c0.88,-10.54 8.779,-16.677 8.779,-16.677c-0,-0 15.809,14.048 24.601,38.637c8.779,24.602 27.231,73.792 19.319,101.89c-7.898,28.11 -31.619,78.168 -31.619,78.168c-0,0 48.309,-58.836 52.699,-73.779c4.389,-14.929 7.031,-45.668 1.761,-64.12c-5.27,-18.438 -21.96,-86.947 -21.96,-86.947c-0,0 28.11,22.828 36.889,45.669c8.779,22.84 21.08,67.628 24.589,90.469c3.522,22.841 -3.509,86.96 -3.509,86.96c-0,0 30.739,-86.96 26.349,-110.668c-4.389,-23.722 -15.809,-107.16 -15.809,-107.16c-0,0 22.84,-0.88 36.009,21.08c13.181,21.96 22.84,29.858 28.11,53.58c5.27,23.708 9.66,43.92 9.66,43.92c-0,0 2.641,-48.31 -4.39,-69.389c-7.031,-21.093 -14.048,-54.461 -22.84,-56.222Z"/></g></g><g><path d="M3361.85,3078.91l496.45,-39.841c0,0 -16.824,79.916 -81.593,139.904c0,0 -170.755,187.223 -366.66,-15.564c0,0 -32.055,-34.587 -48.197,-84.499" style="fill-rule:nonzero;"/></g><path d="M1288.73,2028.37l-38.466,68.772l-159.11,377.109c-0,0 -0.986,237.042 -73.516,256.374c-72.531,19.344 212.177,199.495 212.177,199.495c-0,-0 149.2,155.784 203.083,183.737c18.898,9.804 113.034,67.445 210.639,113.665c100.523,47.614 199.968,89.352 205.212,79.759l371.379,-750.525c-0,0 -72.4,-1.117 -169.939,-104.636c-86.08,-91.363 -66.052,-256.978 -167.6,-324.672c-101.535,-67.695 -593.859,-99.078 -593.859,-99.078Z"/><g><path d="M5675.45,2028.37l38.466,68.772l159.11,377.109c0,0 0.986,237.042 73.516,256.374c72.531,19.344 -212.177,199.495 -212.177,199.495c0,-0 -149.2,155.784 -203.083,183.737c-18.898,9.804 -113.034,67.445 -210.639,113.665c-100.523,47.614 -199.968,89.352 -205.212,79.759l-371.379,-750.525c0,0 72.4,-1.117 169.939,-104.636c86.08,-91.363 66.052,-256.978 167.6,-324.672c101.535,-67.695 593.859,-99.078 593.859,-99.078Z"/></g><g><path d="M5234.74,2509.66c-6.089,-13.241 -21.772,-19.032 -35.001,-12.948l-373.284,171.677c-13.23,6.084 -19.039,21.76 -12.949,35.001l22.047,47.939c6.084,13.229 21.772,19.032 35.001,12.948l373.285,-171.677c13.229,-6.084 19.033,-21.772 12.949,-35.001l-22.048,-47.939Z" style="fill:rgb(165,43,0);"/></g><g><path d="M5313.59,2668.68c-6.09,-13.241 -21.772,-19.033 -35.001,-12.948l-373.285,171.677c-13.229,6.084 -19.038,21.76 -12.948,35.001l22.047,47.938c6.084,13.23 21.772,19.033 35.001,12.949l373.285,-171.677c13.229,-6.085 19.033,-21.772 12.948,-35.002l-22.047,-47.938Z" style="fill:rgb(165,43,0);"/></g><g><path d="M5389.81,2823.75c-6.09,-13.241 -21.773,-19.032 -35.002,-12.948l-373.284,171.677c-13.23,6.084 -19.039,21.76 -12.949,35.001l22.047,47.939c6.085,13.229 21.772,19.032 35.002,12.948l373.284,-171.677c13.229,-6.084 19.033,-21.772 12.949,-35.001l-22.047,-47.939Z" style="fill:rgb(165,43,0);"/></g><path d="M2291.56,998.075c96.712,42.304 556.063,139.015 822.004,151.106c265.954,12.077 900.593,6.032 1208.85,-66.485c308.245,-72.531 374.73,-114.848 374.73,-114.848c-0,0 253.863,-78.576 132.983,-163.197c-77.104,-53.961 -256.662,13.773 -363.533,-7.714c-60.689,-12.196 -95.41,-11.657 -95.831,-137.347c-0.434,-128.495 48.349,-229.674 -132.97,-380.779c-181.333,-151.105 -471.455,-398.917 -737.396,-211.546c-265.941,187.37 -223.637,253.855 -459.351,187.37c-235.728,-66.487 -259.909,-259.901 -435.183,-0c-175.288,259.899 -102.757,362.651 -126.939,507.712c-24.168,145.061 -120.879,12.091 -253.85,66.485c-132.97,54.395 -48.349,114.835 -48.349,114.835c-0,-0 18.123,12.09 114.834,54.408Z"/><path d="M2484.69,603.5c-18.557,46.26 2.588,43.829 -0.999,113.783c-0,0 -53.16,76.276 37.559,111.549c81.757,31.791 401.724,33.46 495.623,30.227c103.94,-3.588 564.159,-13.089 921.62,-49.414c245.374,-24.93 442.319,-77.905 442.411,-88.524c1.367,-146.086 -6.426,-231.644 -6.426,-231.644c0,-0 -6.15,-62.096 -270.435,54.799c-236.148,104.446 -301.425,66.965 -537.152,66.965c-235.714,-0 -447.274,30.226 -664.852,6.045c-217.592,-24.181 -403.682,-47.876 -417.349,-13.786Z" style="fill:rgb(165,43,0);"/><g><g><path d="M4308.11,471.353c0,-0 -110.189,120.197 -120.423,178.233c-8.399,47.636 23.453,93.129 71.094,101.529c47.628,8.398 93.119,-23.457 101.518,-71.093c10.233,-58.035 -52.189,-208.669 -52.189,-208.669Z" style="fill:rgb(247,76,0);"/></g><g><path d="M4302.94,467.008c-0,0 -159.189,-35.328 -214.567,-15.173c-45.453,16.544 -68.925,66.875 -52.38,112.334c16.541,45.445 66.874,68.914 112.328,52.37c55.377,-20.155 154.619,-149.531 154.619,-149.531Z" style="fill:rgb(247,76,0);"/></g><g><path d="M4313.77,470.155c0,-0 48.999,155.526 94.143,193.406c37.054,31.092 92.378,26.254 123.473,-10.804c31.087,-37.048 26.245,-92.372 -10.809,-123.464c-45.143,-37.88 -206.807,-59.138 -206.807,-59.138Z" style="fill:rgb(247,76,0);"/></g><g><path d="M4314.18,462.786c0,0 159.189,35.329 214.567,15.173c45.453,-16.544 68.925,-66.875 52.38,-112.333c-16.541,-45.446 -66.874,-68.915 -112.328,-52.371c-55.377,20.156 -154.619,149.531 -154.619,149.531Z" style="fill:rgb(247,76,0);"/></g><g><path d="M4308.3,456.023c-0,0 110.19,-120.197 120.423,-178.233c8.4,-47.636 -23.453,-93.129 -71.093,-101.529c-47.628,-8.398 -93.119,23.457 -101.518,71.093c-10.234,58.036 52.188,208.669 52.188,208.669Z" style="fill:rgb(247,76,0);"/></g><g><path d="M4297.58,455.171c0,0 -48.999,-155.526 -94.142,-193.406c-37.054,-31.092 -92.379,-26.254 -123.474,10.804c-31.087,37.048 -26.245,92.372 10.809,123.464c45.144,37.88 206.807,59.138 206.807,59.138Z" style="fill:rgb(247,76,0);"/></g></g><g><g><path d="M4213.1,729.873c-0,0 -68.921,75.181 -75.322,111.481c-5.254,29.794 14.669,58.249 44.467,63.503c29.79,5.253 58.244,-14.672 63.497,-44.466c6.401,-36.3 -32.642,-130.518 -32.642,-130.518Z" style="fill:rgb(240,222,214);"/></g><g><path d="M4209.86,727.156c0,-0 -99.569,-22.098 -134.206,-9.491c-28.43,10.348 -43.111,41.829 -32.762,70.262c10.346,28.425 41.828,43.104 70.258,32.757c34.637,-12.607 96.71,-93.528 96.71,-93.528Z" style="fill:rgb(240,222,214);"/></g><g><path d="M4216.64,729.124c-0,-0 30.647,97.277 58.884,120.971c23.176,19.447 57.78,16.42 77.229,-6.758c19.444,-23.173 16.416,-57.777 -6.761,-77.224c-28.236,-23.693 -129.352,-36.989 -129.352,-36.989Z" style="fill:rgb(240,222,214);"/></g><g><path d="M4216.9,724.515c0,-0 99.569,22.097 134.206,9.49c28.43,-10.348 43.111,-41.829 32.762,-70.262c-10.346,-28.425 -41.828,-43.104 -70.258,-32.756c-34.637,12.607 -96.71,93.528 -96.71,93.528Z" style="fill:rgb(240,222,214);"/></g><g><path d="M4213.22,720.285c-0,-0 68.921,-75.181 75.321,-111.481c5.254,-29.795 -14.669,-58.249 -44.467,-63.504c-29.79,-5.252 -58.243,14.672 -63.497,44.467c-6.401,36.3 32.643,130.518 32.643,130.518Z" style="fill:rgb(240,222,214);"/></g><g><path d="M4206.51,719.752c-0,-0 -30.648,-97.278 -58.884,-120.971c-23.176,-19.447 -57.78,-16.421 -77.23,6.758c-19.444,23.172 -16.415,57.776 6.761,77.223c28.237,23.693 129.353,36.99 129.353,36.99Z" style="fill:rgb(240,222,214);"/></g></g><g><g><path d="M3922.98,469.972c-0,0 -68.921,75.181 -75.322,111.481c-5.254,29.795 14.669,58.249 44.467,63.504c29.79,5.252 58.244,-14.672 63.497,-44.467c6.401,-36.3 -32.642,-130.518 -32.642,-130.518Z" style="fill:rgb(240,222,214);"/></g><g><path d="M3919.74,467.255c0,-0 -99.569,-22.097 -134.206,-9.491c-28.43,10.348 -43.111,41.829 -32.762,70.262c10.346,28.425 41.828,43.104 70.258,32.757c34.637,-12.607 96.71,-93.528 96.71,-93.528Z" style="fill:rgb(240,222,214);"/></g><g><path d="M3926.52,469.223c-0,-0 30.647,97.278 58.884,120.971c23.176,19.447 57.78,16.421 77.229,-6.758c19.444,-23.173 16.416,-57.776 -6.761,-77.223c-28.236,-23.694 -129.352,-36.99 -129.352,-36.99Z" style="fill:rgb(240,222,214);"/></g><g><path d="M3926.78,464.614c-0,-0 99.569,22.097 134.206,9.49c28.43,-10.347 43.111,-41.828 32.762,-70.261c-10.346,-28.426 -41.828,-43.105 -70.258,-32.757c-34.637,12.607 -96.71,93.528 -96.71,93.528Z" style="fill:rgb(240,222,214);"/></g><g><path d="M3923.09,460.384c-0,-0 68.921,-75.181 75.321,-111.481c5.254,-29.794 -14.669,-58.249 -44.467,-63.503c-29.79,-5.253 -58.243,14.672 -63.497,44.466c-6.401,36.3 32.643,130.518 32.643,130.518Z" style="fill:rgb(240,222,214);"/></g><g><path d="M3916.39,459.851c-0,-0 -30.648,-97.278 -58.884,-120.971c-23.176,-19.447 -57.78,-16.421 -77.23,6.758c-19.444,23.172 -16.415,57.776 6.761,77.223c28.237,23.694 129.353,36.99 129.353,36.99Z" style="fill:rgb(240,222,214);"/></g></g><g><g><ellipse cx="2003.27" cy="2586.26" rx="100.893" ry="97.925" style="fill:rgb(165,43,0);"/></g><ellipse cx="2031.53" cy="2627.1" rx="98.428" ry="95.533" style="fill:rgb(226,239,237);"/></g><g><g><ellipse cx="1861.36" cy="2826.39" rx="108.654" ry="105.458" style="fill:rgb(165,43,0);"/></g><ellipse cx="1886.79" cy="2864.49" rx="98.428" ry="95.533" style="fill:rgb(226,239,237);"/></g><g><g><ellipse cx="1716.61" cy="3063.78" rx="108.654" ry="105.458" style="fill:rgb(165,43,0);"/></g><ellipse cx="1742.04" cy="3101.87" rx="98.428" ry="95.533" style="fill:rgb(226,239,237);"/></g></g></svg>