<?xml version="1.0" encoding="UTF-8" standalone="no"?>
<!DOCTYPE svg PUBLIC "-//W3C//DTD SVG 1.1//EN" "http://www.w3.org/Graphics/SVG/1.1/DTD/svg11.dtd">
<svg width="100%" height="100%" viewBox="0 0 5428 3197" version="1.1" xmlns="http://www.w3.org/2000/svg" xmlns:xlink="http://www.w3.org/1999/xlink" xml:space="preserve" xmlns:serif="http://www.serif.com/" style="fill-rule:evenodd;clip-rule:evenodd;stroke-linejoin:round;stroke-miterlimit:2;">
    <g transform="matrix(1,0,0,1,-822,-454)">
        <g id="v2" transform="matrix(1,0,0,1,-334.388,-94.4278)">
            <g id="rustacean-flat-gesture.svg" transform="matrix(4.16667,0,0,4.16667,3636.94,2345.68)">
                <g transform="matrix(1,0,0,1,-600,-400)">
                    <g id="Layer-1" serif:id="Layer 1">
                        <g transform="matrix(1,0,0,1,654.172,668.359)">
                            <path d="M0,-322.648C-114.597,-322.648 -218.172,-308.869 -296.172,-286.419L-296.172,-291.49C-374.172,-266.395 -423.853,-231.531 -423.853,-192.984C-423.853,-186.907 -422.508,-180.922 -420.15,-175.053L-428.134,-160.732C-428.134,-160.732 -434.547,-152.373 -423.199,-134.733C-413.189,-119.179 -363.035,-58.295 -336.571,-26.413C-325.204,-10.065 -317.488,0 -316.814,-0.973C-315.753,-2.516 -323.878,-33.202 -346.453,-68.215C-356.986,-87.02 -369.811,-111.934 -377.361,-130.335C-356.28,-116.993 -328.172,-104.89 -296.172,-94.474L-296.172,-94.633C-218.172,-72.18 -114.597,-58.404 0,-58.404C131.156,-58.404 248.828,-76.45 327.828,-104.895L327.828,-276.153C248.828,-304.6 131.156,-322.648 0,-322.648" style="fill:rgb(165,43,0);fill-rule:nonzero;"/>
                        </g>
                        <g transform="matrix(1,0,0,1,1099.87,554.94)">
                            <path d="M0,-50.399L-13.433,-78.227C-13.362,-79.283 -13.309,-80.341 -13.309,-81.402C-13.309,-112.95 -46.114,-142.022 -101.306,-165.303L-101.306,2.499C-75.555,-8.365 -54.661,-20.485 -39.72,-33.538C-44.118,-15.855 -59.157,19.917 -71.148,45.073C-90.855,81.054 -97.993,112.376 -97.077,113.926C-96.493,114.904 -89.77,104.533 -79.855,87.726C-56.783,54.85 -13.063,-7.914 -4.325,-23.901C5.574,-42.024 0,-50.399 0,-50.399" style="fill:rgb(165,43,0);fill-rule:nonzero;"/>
                        </g>
                        <g transform="matrix(1,0,0,1,1177.87,277.21)">
                            <path d="M0,227.175L-88.296,162.132C-89.126,159.237 -89.956,156.345 -90.812,153.474L-120.335,79.255C-122.233,75.376 -124.225,71.557 -126.224,67.771L-105.62,20.599C-103.501,15.793 -103.947,10.209 -106.759,5.848C-109.556,1.465 -114.31,-1.094 -119.376,-0.895L-169.146,0.914C-171.723,-2.442 -174.34,-5.766 -177.012,-9.032L-165.574,-59.592C-164.415,-64.724 -165.876,-70.1 -169.453,-73.83C-173.008,-77.546 -178.175,-79.084 -183.089,-77.88L-231.567,-65.961C-234.707,-68.736 -237.897,-71.474 -241.126,-74.157L-239.381,-126.064C-239.193,-131.318 -241.643,-136.311 -245.849,-139.227C-250.053,-142.161 -255.389,-142.603 -259.987,-140.423L-305.213,-118.921C-308.853,-121.011 -312.515,-123.081 -316.218,-125.084L-387.422,-155.863C-391.392,-157.181 -395.38,-158.446 -399.418,-159.655L-416.798,-208.159C-418.564,-213.104 -422.64,-216.735 -427.608,-217.756C-432.561,-218.768 -437.656,-217.053 -441.091,-213.217L-475.029,-175.246C-479.133,-175.717 -483.239,-176.147 -487.356,-176.505L-513.564,-220.659C-516.22,-225.131 -520.908,-227.852 -525.961,-227.852C-531.002,-227.852 -535.7,-225.131 -538.333,-220.659L-564.547,-176.505C-568.666,-176.147 -572.791,-175.717 -576.888,-175.246L-610.831,-213.217C-614.268,-217.053 -619.382,-218.768 -624.318,-217.756C-629.284,-216.721 -633.363,-213.104 -635.124,-208.159L-652.517,-159.655C-656.544,-158.446 -660.534,-157.173 -664.514,-155.863L-735.72,-125.084C-739.42,-123.081 -743.083,-121.022 -746.734,-118.921L-791.956,-140.423C-796.548,-142.612 -801.908,-142.161 -806.091,-139.227C-810.292,-136.311 -812.747,-131.318 -812.557,-126.064L-810.821,-74.157C-814.04,-71.474 -817.224,-68.736 -820.379,-65.961L-868.849,-77.88C-873.774,-79.075 -878.935,-77.546 -882.499,-73.83C-886.084,-70.1 -887.538,-64.724 -886.384,-59.592L-874.969,-9.032C-877.618,-5.753 -880.239,-2.442 -882.808,0.914L-932.579,-0.895C-937.602,-1.043 -942.396,1.465 -945.202,5.848C-948.014,10.209 -948.439,15.793 -946.348,20.599L-925.729,67.771C-927.732,71.557 -929.721,75.376 -931.635,79.255L-961.146,153.474C-961.37,154.215 -961.576,154.964 -961.799,155.707L-1043.82,242.829C-1043.82,242.829 -1056.38,252.68 -1038.09,275.831C-1021.95,296.252 -939.097,377.207 -895.338,419.62C-876.855,441.152 -864.195,454.486 -862.872,453.332C-860.784,451.5 -871.743,412.326 -908.147,366.362C-936.207,325.123 -972.625,261.696 -964.086,254.385C-964.086,254.385 -954.372,242.054 -934.882,233.178C-934.169,233.749 -935.619,232.613 -934.882,233.178C-934.882,233.178 -523.568,422.914 -142.036,236.388C-98.452,228.571 -72.068,251.917 -72.068,251.917C-62.969,257.193 -86.531,322.412 -105.906,365.583C-132.259,414.606 -136.123,452.859 -133.888,454.185C-132.479,455.027 -122.89,440.438 -109.214,417.219C-75.469,370.196 -11.675,280.554 0,258.781C13.239,234.094 0,227.175 0,227.175" style="fill:rgb(247,76,0);fill-rule:nonzero;"/>
                        </g>
                        <g transform="matrix(1,0,0,1,278.418,211.791)">
                            <path d="M0,253.04C0,253.04 -111.096,209.79 -129.876,163.242C-129.876,163.242 0.515,59.525 -155.497,-50.644L-159.726,89.773C-159.726,89.773 -205.952,45.179 -203.912,-32.91C-203.912,-32.91 -347.685,36.268 -179.436,158.667C-179.436,158.667 -173.76,224.365 -22.459,303.684L0,253.04Z" style="fill:rgb(247,76,0);fill-rule:nonzero;"/>
                        </g>
                        <g transform="matrix(1,0,0,1,729.948,492.523)">
                            <path d="M0,-87.016C0,-87.016 41.104,-132.025 82.21,-87.016C82.21,-87.016 114.507,-27.003 82.21,3C82.21,3 29.36,45.009 0,3C0,3 -35.232,-30.006 0,-87.016" style="fill-rule:nonzero;"/>
                        </g>
                        <g transform="matrix(1,0,0,1,777.536,422.196)">
                            <path d="M0,0.008C0,17.531 -10.329,31.738 -23.07,31.738C-35.809,31.738 -46.139,17.531 -46.139,0.008C-46.139,-17.521 -35.809,-31.73 -23.07,-31.73C-10.329,-31.73 0,-17.521 0,0.008" style="fill:white;fill-rule:nonzero;"/>
                        </g>
                        <g transform="matrix(1,0,0,1,546.49,486.263)">
                            <path d="M0,-93.046C0,-93.046 70.508,-124.265 89.753,-54.583C89.753,-54.583 109.912,26.635 31.851,31.219C31.851,31.219 -67.69,12.047 0,-93.046" style="fill-rule:nonzero;"/>
                        </g>
                        <g transform="matrix(1,0,0,1,581.903,423.351)">
                            <path d="M0,0.002C0,18.074 -10.653,32.731 -23.794,32.731C-36.931,32.731 -47.586,18.074 -47.586,0.002C-47.586,-18.076 -36.931,-32.729 -23.794,-32.729C-10.653,-32.729 0,-18.076 0,0.002" style="fill:white;fill-rule:nonzero;"/>
                        </g>
                    </g>
                </g>
            </g>
            <g transform="matrix(4.16667,0,0,4.16667,5438.86,1753.53)">
                <path d="M0,232.466C0,232.466 53.179,230 123.032,159.004L132.93,137.025C132.93,137.025 24.513,29.177 193.048,-45.266C193.048,-45.266 178.293,-21.154 182.622,72.006C182.622,72.006 233.437,54.357 248.336,-27.934C248.336,-27.934 322.456,69.79 167.834,161.443C167.834,161.443 95.294,277.732 -6.971,266.593L0,232.466Z" style="fill:rgb(247,76,0);fill-rule:nonzero;"/>
            </g>
            <g>
                <path d="M1551.77,2230.89C1551.77,2230.89 1481.77,2359.67 1484.48,2410.35C1487.19,2461.04 1515.68,2516.37 1561.79,2544.99C1607.91,2573.62 1749.87,2649.29 1764.79,2672.35C1779.71,2695.41 1871.87,2651.36 1893.57,2647.29C1915.27,2643.22 1976.52,2638.06 2041.62,2684.18C2106.73,2730.29 2151.49,2804.89 2151.49,2804.89C2151.49,2804.89 2259.27,2921.18 2290.47,2940.16C2309.37,2951.67 2356.07,2979.34 2412.62,3005.93C2449.41,3023.23 2491.43,3042.35 2531.99,3056.99C2657.5,3102.29 2807.64,3135.94 2896.76,3153.11C3007.98,3174.54 3269.47,3210.51 3348.06,3217.04C3491.83,3228.97 3896.06,3229.43 3901.49,3219.93C3906.91,3210.44 3955.94,3161.61 3955.94,3161.61C3955.94,3161.61 3635.3,3154.83 3602.75,3150.76C3570.19,3146.69 3227.3,3107.13 3167.36,3097.86C3101.01,3087.6 2884.14,3035.99 2844.55,3028.69C2802.87,3021.01 2300.25,2880.1 2283.69,2858.97C2268.72,2839.87 2052.16,2503.14 2041.31,2480.32C2030.46,2457.49 2068.03,2453.42 1988,2412.73C1907.98,2372.04 1861.86,2366.61 1836.09,2308.29C1810.32,2249.97 1814.39,2252.68 1781.84,2244.54C1749.28,2236.41 1752,2241.83 1752,2241.83C1693.21,2210.35 1625.03,2211.73 1551.77,2230.89Z" style="fill:rgb(240,222,214);"/>
                <clipPath id="_clip1">
                    <path d="M1551.77,2230.89C1551.77,2230.89 1481.77,2359.67 1484.48,2410.35C1487.19,2461.04 1515.68,2516.37 1561.79,2544.99C1607.91,2573.62 1749.87,2649.29 1764.79,2672.35C1779.71,2695.41 1871.87,2651.36 1893.57,2647.29C1915.27,2643.22 1976.52,2638.06 2041.62,2684.18C2106.73,2730.29 2151.49,2804.89 2151.49,2804.89C2151.49,2804.89 2259.27,2921.18 2290.47,2940.16C2309.37,2951.67 2356.07,2979.34 2412.62,3005.93C2449.41,3023.23 2491.43,3042.35 2531.99,3056.99C2657.5,3102.29 2807.64,3135.94 2896.76,3153.11C3007.98,3174.54 3269.47,3210.51 3348.06,3217.04C3491.83,3228.97 3896.06,3229.43 3901.49,3219.93C3906.91,3210.44 3955.94,3161.61 3955.94,3161.61C3955.94,3161.61 3635.3,3154.83 3602.75,3150.76C3570.19,3146.69 3227.3,3107.13 3167.36,3097.86C3101.01,3087.6 2884.14,3035.99 2844.55,3028.69C2802.87,3021.01 2300.25,2880.1 2283.69,2858.97C2268.72,2839.87 2052.16,2503.14 2041.31,2480.32C2030.46,2457.49 2068.03,2453.42 1988,2412.73C1907.98,2372.04 1861.86,2366.61 1836.09,2308.29C1810.32,2249.97 1814.39,2252.68 1781.84,2244.54C1749.28,2236.41 1752,2241.83 1752,2241.83C1693.21,2210.35 1625.03,2211.73 1551.77,2230.89Z"/>
                </clipPath>
                <g clip-path="url(#_clip1)">
                    <ellipse cx="2774.33" cy="2604.91" rx="78.567" ry="80.77"/>
                </g>
                <g transform="matrix(1,0,0,1,2.50632,7.51895)">
                    <path d="M1555.83,2242.77C1562.51,2241.43 1586.57,2232.08 1616.65,2230.74C1646.72,2229.4 1678.13,2226.73 1701.53,2236.09C1724.92,2245.44 1754.33,2249.45 1765.69,2256.81C1777.05,2264.16 1765.69,2262.82 1783.73,2277.53C1801.78,2292.23 1809.13,2286.88 1817.82,2315.62C1826.51,2344.36 1825.17,2356.39 1825.17,2356.39C1825.17,2356.39 1818.49,2350.38 1806.46,2327.65C1794.43,2304.93 1789.75,2300.92 1773.71,2288.22C1757.67,2275.52 1737.62,2264.16 1737.62,2264.16C1737.62,2264.16 1737.62,2282.2 1742.96,2296.24C1748.31,2310.27 1765.69,2343.69 1773.71,2354.39C1781.73,2365.08 1781.73,2377.78 1781.73,2377.78C1781.73,2377.78 1759.67,2351.71 1748.98,2335.67C1738.29,2319.63 1712.89,2257.47 1712.89,2257.47C1712.89,2257.47 1701.53,2266.16 1700.86,2284.21C1700.19,2302.25 1700.86,2334.34 1704.87,2350.38C1708.88,2366.41 1725.59,2393.15 1725.59,2393.15C1725.59,2393.15 1684.82,2343.69 1682.81,2333C1680.81,2322.3 1684.82,2269.5 1684.15,2261.48C1683.48,2253.46 1677.47,2248.79 1677.47,2248.79C1677.47,2248.79 1665.44,2259.48 1658.75,2278.19C1652.07,2296.91 1638.03,2334.34 1644.05,2355.72C1650.06,2377.11 1668.11,2415.2 1668.11,2415.2C1668.11,2415.2 1631.35,2370.43 1628.01,2359.06C1624.67,2347.7 1622.66,2324.31 1626.67,2310.27C1630.68,2296.24 1643.38,2244.11 1643.38,2244.11C1643.38,2244.11 1621.99,2261.48 1615.31,2278.86C1608.63,2296.24 1599.27,2330.32 1596.6,2347.7C1593.92,2365.08 1599.27,2413.87 1599.27,2413.87C1599.27,2413.87 1575.88,2347.7 1579.22,2329.66C1582.56,2311.61 1591.25,2248.12 1591.25,2248.12C1591.25,2248.12 1573.87,2247.45 1563.85,2264.16C1553.82,2280.87 1546.47,2286.88 1542.46,2304.93C1538.45,2322.97 1535.11,2338.35 1535.11,2338.35C1535.11,2338.35 1533.1,2301.59 1538.45,2285.55C1543.8,2269.5 1549.14,2244.11 1555.83,2242.77Z"/>
                </g>
            </g>
            <g transform="matrix(-1,0,0,1,7748.34,-1)">
                <path d="M1551.77,2230.89C1551.77,2230.89 1481.77,2359.67 1484.48,2410.35C1487.19,2461.04 1515.68,2516.37 1561.79,2544.99C1607.91,2573.62 1749.87,2649.29 1764.79,2672.35C1779.71,2695.41 1871.87,2651.36 1893.57,2647.29C1915.27,2643.22 1976.52,2638.06 2041.62,2684.18C2106.73,2730.29 2151.49,2804.89 2151.49,2804.89C2151.49,2804.89 2259.27,2921.18 2290.47,2940.16C2309.37,2951.67 2356.07,2979.34 2412.62,3005.93C2449.41,3023.23 2491.43,3042.35 2531.99,3056.99C2657.5,3102.29 2807.64,3135.94 2896.76,3153.11C3007.98,3174.54 3269.47,3210.51 3348.06,3217.04C3491.83,3228.97 3896.06,3229.43 3901.49,3219.93C3906.91,3210.44 3955.94,3161.61 3955.94,3161.61C3955.94,3161.61 3635.3,3154.83 3602.75,3150.76C3570.19,3146.69 3227.3,3107.13 3167.36,3097.86C3101.01,3087.6 2884.14,3035.99 2844.55,3028.69C2802.87,3021.01 2300.25,2880.1 2283.69,2858.97C2268.72,2839.87 2052.16,2503.14 2041.31,2480.32C2030.46,2457.49 2068.03,2453.42 1988,2412.73C1907.98,2372.04 1861.86,2366.61 1836.09,2308.29C1810.32,2249.97 1814.39,2252.68 1781.84,2244.54C1749.28,2236.41 1752,2241.83 1752,2241.83C1693.21,2210.35 1625.03,2211.73 1551.77,2230.89Z" style="fill:rgb(240,222,214);"/>
                <clipPath id="_clip2">
                    <path d="M1551.77,2230.89C1551.77,2230.89 1481.77,2359.67 1484.48,2410.35C1487.19,2461.04 1515.68,2516.37 1561.79,2544.99C1607.91,2573.62 1749.87,2649.29 1764.79,2672.35C1779.71,2695.41 1871.87,2651.36 1893.57,2647.29C1915.27,2643.22 1976.52,2638.06 2041.62,2684.18C2106.73,2730.29 2151.49,2804.89 2151.49,2804.89C2151.49,2804.89 2259.27,2921.18 2290.47,2940.16C2309.37,2951.67 2356.07,2979.34 2412.62,3005.93C2449.41,3023.23 2491.43,3042.35 2531.99,3056.99C2657.5,3102.29 2807.64,3135.94 2896.76,3153.11C3007.98,3174.54 3269.47,3210.51 3348.06,3217.04C3491.83,3228.97 3896.06,3229.43 3901.49,3219.93C3906.91,3210.44 3955.94,3161.61 3955.94,3161.61C3955.94,3161.61 3635.3,3154.83 3602.75,3150.76C3570.19,3146.69 3227.3,3107.13 3167.36,3097.86C3101.01,3087.6 2884.14,3035.99 2844.55,3028.69C2802.87,3021.01 2300.25,2880.1 2283.69,2858.97C2268.72,2839.87 2052.16,2503.14 2041.31,2480.32C2030.46,2457.49 2068.03,2453.42 1988,2412.73C1907.98,2372.04 1861.86,2366.61 1836.09,2308.29C1810.32,2249.97 1814.39,2252.68 1781.84,2244.54C1749.28,2236.41 1752,2241.83 1752,2241.83C1693.21,2210.35 1625.03,2211.73 1551.77,2230.89Z"/>
                </clipPath>
                <g clip-path="url(#_clip2)">
                    <ellipse cx="2774.33" cy="2604.91" rx="78.567" ry="80.77"/>
                </g>
                <g transform="matrix(1,0,0,1,2.50632,7.51895)">
                    <path d="M1555.83,2242.77C1562.51,2241.43 1586.57,2232.08 1616.65,2230.74C1646.72,2229.4 1678.13,2226.73 1701.53,2236.09C1724.92,2245.44 1754.33,2249.45 1765.69,2256.81C1777.05,2264.16 1765.69,2262.82 1783.73,2277.53C1801.78,2292.23 1809.13,2286.88 1817.82,2315.62C1826.51,2344.36 1825.17,2356.39 1825.17,2356.39C1825.17,2356.39 1818.49,2350.38 1806.46,2327.65C1794.43,2304.93 1789.75,2300.92 1773.71,2288.22C1757.67,2275.52 1737.62,2264.16 1737.62,2264.16C1737.62,2264.16 1737.62,2282.2 1742.96,2296.24C1748.31,2310.27 1765.69,2343.69 1773.71,2354.39C1781.73,2365.08 1781.73,2377.78 1781.73,2377.78C1781.73,2377.78 1759.67,2351.71 1748.98,2335.67C1738.29,2319.63 1712.89,2257.47 1712.89,2257.47C1712.89,2257.47 1701.53,2266.16 1700.86,2284.21C1700.19,2302.25 1700.86,2334.34 1704.87,2350.38C1708.88,2366.41 1725.59,2393.15 1725.59,2393.15C1725.59,2393.15 1684.82,2343.69 1682.81,2333C1680.81,2322.3 1684.82,2269.5 1684.15,2261.48C1683.48,2253.46 1677.47,2248.79 1677.47,2248.79C1677.47,2248.79 1665.44,2259.48 1658.75,2278.19C1652.07,2296.91 1638.03,2334.34 1644.05,2355.72C1650.06,2377.11 1668.11,2415.2 1668.11,2415.2C1668.11,2415.2 1631.35,2370.43 1628.01,2359.06C1624.67,2347.7 1622.66,2324.31 1626.67,2310.27C1630.68,2296.24 1643.38,2244.11 1643.38,2244.11C1643.38,2244.11 1621.99,2261.48 1615.31,2278.86C1608.63,2296.24 1599.27,2330.32 1596.6,2347.7C1593.92,2365.08 1599.27,2413.87 1599.27,2413.87C1599.27,2413.87 1575.88,2347.7 1579.22,2329.66C1582.56,2311.61 1591.25,2248.12 1591.25,2248.12C1591.25,2248.12 1573.87,2247.45 1563.85,2264.16C1553.82,2280.87 1546.47,2286.88 1542.46,2304.93C1538.45,2322.97 1535.11,2338.35 1535.11,2338.35C1535.11,2338.35 1533.1,2301.59 1538.45,2285.55C1543.8,2269.5 1549.14,2244.11 1555.83,2242.77Z"/>
                </g>
            </g>
            <g transform="matrix(4.67547,0,0,4.67547,3767.06,3104.24)">
                <path d="M0,-40.271L80.796,-46.755C80.796,-46.755 78.058,-33.749 67.517,-23.986C67.517,-23.986 39.727,6.484 7.844,-26.519C7.844,-26.519 2.627,-32.148 0,-40.271" style="fill-rule:nonzero;"/>
            </g>
            <path d="M2189.58,2116.57L2160.31,2168.9L2039.24,2455.85C2039.24,2455.85 2038.49,2636.22 1983.3,2650.93C1928.11,2665.65 2144.75,2802.73 2144.75,2802.73C2144.75,2802.73 2258.28,2921.27 2299.28,2942.54C2313.66,2950 2385.29,2993.86 2459.56,3029.03C2536.05,3065.26 2611.72,3097.02 2615.71,3089.72L2898.3,2518.63C2898.3,2518.63 2843.21,2517.78 2768.99,2439.01C2703.49,2369.49 2718.73,2243.47 2641.46,2191.96C2564.2,2140.45 2189.58,2116.57 2189.58,2116.57Z"/>
            <g transform="matrix(-1,0,0,1,7717.11,0)">
                <path d="M2189.58,2116.57L2160.31,2168.9L2039.24,2455.85C2039.24,2455.85 2038.49,2636.22 1983.3,2650.93C1928.11,2665.65 2144.75,2802.73 2144.75,2802.73C2144.75,2802.73 2258.28,2921.27 2299.28,2942.54C2313.66,2950 2385.29,2993.86 2459.56,3029.03C2536.05,3065.26 2611.72,3097.02 2615.71,3089.72L2898.3,2518.63C2898.3,2518.63 2843.21,2517.78 2768.99,2439.01C2703.49,2369.49 2718.73,2243.47 2641.46,2191.96C2564.2,2140.45 2189.58,2116.57 2189.58,2116.57Z"/>
            </g>
            <g transform="matrix(0.908521,-0.417838,0.417838,0.908521,-755.896,2444.29)">
                <path d="M5387.87,2520.32C5387.87,2509.23 5378.87,2500.24 5367.79,2500.24L5055.15,2500.24C5044.07,2500.24 5035.07,2509.23 5035.07,2520.32L5035.07,2560.47C5035.07,2571.55 5044.07,2580.55 5055.15,2580.55L5367.79,2580.55C5378.87,2580.55 5387.87,2571.55 5387.87,2560.47L5387.87,2520.32Z" style="fill:rgb(247,31,0);"/>
            </g>
            <g transform="matrix(0.908521,-0.417838,0.417838,0.908521,-695.896,2565.29)">
                <path d="M5387.87,2520.32C5387.87,2509.23 5378.87,2500.24 5367.79,2500.24L5055.15,2500.24C5044.07,2500.24 5035.07,2509.23 5035.07,2520.32L5035.07,2560.47C5035.07,2571.55 5044.07,2580.55 5055.15,2580.55L5367.79,2580.55C5378.87,2580.55 5387.87,2571.55 5387.87,2560.47L5387.87,2520.32Z" style="fill:rgb(247,31,0);"/>
            </g>
            <g transform="matrix(0.908521,-0.417838,0.417838,0.908521,-637.896,2683.29)">
                <path d="M5387.87,2520.32C5387.87,2509.23 5378.87,2500.24 5367.79,2500.24L5055.15,2500.24C5044.07,2500.24 5035.07,2509.23 5035.07,2520.32L5035.07,2560.47C5035.07,2571.55 5044.07,2580.55 5055.15,2580.55L5367.79,2580.55C5378.87,2580.55 5387.87,2571.55 5387.87,2560.47L5387.87,2520.32Z" style="fill:rgb(247,31,0);"/>
            </g>
            <path d="M2952.66,1332.6C3026.25,1364.79 3375.78,1438.38 3578.14,1447.58C3780.51,1456.77 4263.42,1452.17 4497.98,1396.99C4732.53,1341.8 4783.12,1309.6 4783.12,1309.6C4783.12,1309.6 4976.29,1249.81 4884.31,1185.42C4825.64,1144.36 4689.01,1195.9 4607.69,1179.55C4561.51,1170.27 4535.09,1170.68 4534.77,1075.04C4534.44,977.265 4571.56,900.276 4433.59,785.297C4295.61,670.318 4074.85,481.753 3872.49,624.327C3670.13,766.901 3702.32,817.491 3522.96,766.901C3343.59,716.31 3325.19,569.137 3191.82,766.901C3058.44,964.664 3113.63,1042.85 3095.23,1153.23C3076.84,1263.61 3003.25,1162.43 2902.07,1203.82C2800.89,1245.21 2865.28,1291.2 2865.28,1291.2C2865.28,1291.2 2879.07,1300.4 2952.66,1332.6Z"/>
            <path d="M3099.61,1032.36C3085.49,1067.56 3101.58,1065.71 3098.85,1118.94C3098.85,1118.94 3058.4,1176.98 3127.43,1203.82C3189.64,1228.01 3433.11,1229.28 3504.56,1226.82C3583.65,1224.09 3933.84,1216.86 4205.84,1189.22C4392.55,1170.25 4542.41,1129.94 4542.48,1121.86C4543.52,1010.7 4537.59,945.597 4537.59,945.597C4537.59,945.597 4532.91,898.347 4331.81,987.295C4152.12,1066.77 4102.45,1038.25 3923.08,1038.25C3743.72,1038.25 3582.74,1061.25 3417.18,1042.85C3251.61,1024.45 3110.01,1006.42 3099.61,1032.36Z" style="fill:rgb(247,31,0);"/>
            <g transform="matrix(1,0,0,1,-279.04,304.354)">
                <g transform="matrix(0.984808,0.173648,-0.173648,0.984808,192.524,-833.48)">
                    <path d="M4757.81,644.54C4757.81,644.54 4691.12,749.171 4691.12,794.013C4691.12,830.819 4721,860.701 4757.81,860.701C4794.61,860.701 4824.49,830.819 4824.49,794.013C4824.49,749.171 4757.81,644.54 4757.81,644.54Z" style="fill:rgb(165,43,0);"/>
                </g>
                <g transform="matrix(0.34202,0.939693,-0.939693,0.34202,3740.6,-4067.18)">
                    <path d="M4757.81,644.54C4757.81,644.54 4691.12,749.171 4691.12,794.013C4691.12,830.819 4721,860.701 4757.81,860.701C4794.61,860.701 4824.49,830.819 4824.49,794.013C4824.49,749.171 4757.81,644.54 4757.81,644.54Z" style="fill:rgb(165,43,0);"/>
                </g>
                <g transform="matrix(0.642788,-0.766044,0.766044,0.642788,1218.43,3856.93)">
                    <path d="M4757.81,644.54C4757.81,644.54 4691.12,749.171 4691.12,794.013C4691.12,830.819 4721,860.701 4757.81,860.701C4794.61,860.701 4824.49,830.819 4824.49,794.013C4824.49,749.171 4757.81,644.54 4757.81,644.54Z" style="fill:rgb(165,43,0);"/>
                </g>
                <g transform="matrix(-0.34202,-0.939693,0.939693,-0.34202,5792.35,5312.26)">
                    <path d="M4757.81,644.54C4757.81,644.54 4691.12,749.171 4691.12,794.013C4691.12,830.819 4721,860.701 4757.81,860.701C4794.61,860.701 4824.49,830.819 4824.49,794.013C4824.49,749.171 4757.81,644.54 4757.81,644.54Z" style="fill:rgb(165,43,0);"/>
                </g>
                <g transform="matrix(-0.984808,-0.173648,0.173648,-0.984808,9339.88,2076.72)">
                    <path d="M4757.81,644.54C4757.81,644.54 4691.12,749.171 4691.12,794.013C4691.12,830.819 4721,860.701 4757.81,860.701C4794.61,860.701 4824.49,830.819 4824.49,794.013C4824.49,749.171 4757.81,644.54 4757.81,644.54Z" style="fill:rgb(165,43,0);"/>
                </g>
                <g transform="matrix(-0.642788,0.766044,-0.766044,-0.642788,8310.13,-2615.25)">
                    <path d="M4757.81,644.54C4757.81,644.54 4691.12,749.171 4691.12,794.013C4691.12,830.819 4721,860.701 4757.81,860.701C4794.61,860.701 4824.49,830.819 4824.49,794.013C4824.49,749.171 4757.81,644.54 4757.81,644.54Z" style="fill:rgb(165,43,0);"/>
                </g>
            </g>
            <g transform="matrix(0.625475,0,0,0.625475,1433.7,736.064)">
                <g transform="matrix(0.984808,0.173648,-0.173648,0.984808,192.524,-833.48)">
                    <path d="M4757.81,644.54C4757.81,644.54 4691.12,749.171 4691.12,794.013C4691.12,830.819 4721,860.701 4757.81,860.701C4794.61,860.701 4824.49,830.819 4824.49,794.013C4824.49,749.171 4757.81,644.54 4757.81,644.54Z" style="fill:rgb(240,222,214);"/>
                </g>
                <g transform="matrix(0.34202,0.939693,-0.939693,0.34202,3740.6,-4067.18)">
                    <path d="M4757.81,644.54C4757.81,644.54 4691.12,749.171 4691.12,794.013C4691.12,830.819 4721,860.701 4757.81,860.701C4794.61,860.701 4824.49,830.819 4824.49,794.013C4824.49,749.171 4757.81,644.54 4757.81,644.54Z" style="fill:rgb(240,222,214);"/>
                </g>
                <g transform="matrix(0.642788,-0.766044,0.766044,0.642788,1218.43,3856.93)">
                    <path d="M4757.81,644.54C4757.81,644.54 4691.12,749.171 4691.12,794.013C4691.12,830.819 4721,860.701 4757.81,860.701C4794.61,860.701 4824.49,830.819 4824.49,794.013C4824.49,749.171 4757.81,644.54 4757.81,644.54Z" style="fill:rgb(240,222,214);"/>
                </g>
                <g transform="matrix(-0.34202,-0.939693,0.939693,-0.34202,5792.35,5312.26)">
                    <path d="M4757.81,644.54C4757.81,644.54 4691.12,749.171 4691.12,794.013C4691.12,830.819 4721,860.701 4757.81,860.701C4794.61,860.701 4824.49,830.819 4824.49,794.013C4824.49,749.171 4757.81,644.54 4757.81,644.54Z" style="fill:rgb(240,222,214);"/>
                </g>
                <g transform="matrix(-0.984808,-0.173648,0.173648,-0.984808,9339.88,2076.72)">
                    <path d="M4757.81,644.54C4757.81,644.54 4691.12,749.171 4691.12,794.013C4691.12,830.819 4721,860.701 4757.81,860.701C4794.61,860.701 4824.49,830.819 4824.49,794.013C4824.49,749.171 4757.81,644.54 4757.81,644.54Z" style="fill:rgb(240,222,214);"/>
                </g>
                <g transform="matrix(-0.642788,0.766044,-0.766044,-0.642788,8310.13,-2615.25)">
                    <path d="M4757.81,644.54C4757.81,644.54 4691.12,749.171 4691.12,794.013C4691.12,830.819 4721,860.701 4757.81,860.701C4794.61,860.701 4824.49,830.819 4824.49,794.013C4824.49,749.171 4757.81,644.54 4757.81,644.54Z" style="fill:rgb(240,222,214);"/>
                </g>
            </g>
            <g transform="matrix(0.625475,0,0,0.625475,1212.94,538.3)">
                <g transform="matrix(0.984808,0.173648,-0.173648,0.984808,192.524,-833.48)">
                    <path d="M4757.81,644.54C4757.81,644.54 4691.12,749.171 4691.12,794.013C4691.12,830.819 4721,860.701 4757.81,860.701C4794.61,860.701 4824.49,830.819 4824.49,794.013C4824.49,749.171 4757.81,644.54 4757.81,644.54Z" style="fill:rgb(240,222,214);"/>
                </g>
                <g transform="matrix(0.34202,0.939693,-0.939693,0.34202,3740.6,-4067.18)">
                    <path d="M4757.81,644.54C4757.81,644.54 4691.12,749.171 4691.12,794.013C4691.12,830.819 4721,860.701 4757.81,860.701C4794.61,860.701 4824.49,830.819 4824.49,794.013C4824.49,749.171 4757.81,644.54 4757.81,644.54Z" style="fill:rgb(240,222,214);"/>
                </g>
                <g transform="matrix(0.642788,-0.766044,0.766044,0.642788,1218.43,3856.93)">
                    <path d="M4757.81,644.54C4757.81,644.54 4691.12,749.171 4691.12,794.013C4691.12,830.819 4721,860.701 4757.81,860.701C4794.61,860.701 4824.49,830.819 4824.49,794.013C4824.49,749.171 4757.81,644.54 4757.81,644.54Z" style="fill:rgb(240,222,214);"/>
                </g>
                <g transform="matrix(-0.34202,-0.939693,0.939693,-0.34202,5792.35,5312.26)">
                    <path d="M4757.81,644.54C4757.81,644.54 4691.12,749.171 4691.12,794.013C4691.12,830.819 4721,860.701 4757.81,860.701C4794.61,860.701 4824.49,830.819 4824.49,794.013C4824.49,749.171 4757.81,644.54 4757.81,644.54Z" style="fill:rgb(240,222,214);"/>
                </g>
                <g transform="matrix(-0.984808,-0.173648,0.173648,-0.984808,9339.88,2076.72)">
                    <path d="M4757.81,644.54C4757.81,644.54 4691.12,749.171 4691.12,794.013C4691.12,830.819 4721,860.701 4757.81,860.701C4794.61,860.701 4824.49,830.819 4824.49,794.013C4824.49,749.171 4757.81,644.54 4757.81,644.54Z" style="fill:rgb(240,222,214);"/>
                </g>
                <g transform="matrix(-0.642788,0.766044,-0.766044,-0.642788,8310.13,-2615.25)">
                    <path d="M4757.81,644.54C4757.81,644.54 4691.12,749.171 4691.12,794.013C4691.12,830.819 4721,860.701 4757.81,860.701C4794.61,860.701 4824.49,830.819 4824.49,794.013C4824.49,749.171 4757.81,644.54 4757.81,644.54Z" style="fill:rgb(240,222,214);"/>
                </g>
            </g>
            <g transform="matrix(1,0,0,1,16.4477,-18.7974)">
                <g transform="matrix(1.02504,0,0,1.02504,-90.074,-95.9592)">
                    <ellipse cx="2738.35" cy="2590.96" rx="74.896" ry="72.693" style="fill:rgb(165,43,0);"/>
                </g>
                <ellipse cx="2738.35" cy="2590.96" rx="74.896" ry="72.693" style="fill:rgb(226,239,237);"/>
            </g>
            <g transform="matrix(1,0,0,1,-93.6933,161.834)">
                <g transform="matrix(1.10389,0,0,1.10389,-303.837,-298.164)">
                    <ellipse cx="2738.35" cy="2590.96" rx="74.896" ry="72.693" style="fill:rgb(165,43,0);"/>
                </g>
                <ellipse cx="2738.35" cy="2590.96" rx="74.896" ry="72.693" style="fill:rgb(226,239,237);"/>
            </g>
            <g transform="matrix(1,0,0,1,-203.834,342.465)">
                <g transform="matrix(1.10389,0,0,1.10389,-303.837,-298.164)">
                    <ellipse cx="2738.35" cy="2590.96" rx="74.896" ry="72.693" style="fill:rgb(165,43,0);"/>
                </g>
                <ellipse cx="2738.35" cy="2590.96" rx="74.896" ry="72.693" style="fill:rgb(226,239,237);"/>
            </g>
        </g>
    </g>
</svg>
